<svg viewBox="0 0 1000 640" xmlns="http://www.w3.org/2000/svg" font-family="'Microsoft YaHei',sans-serif">
  <rect x="0" y="0" width="1000" height="640" fill="#ffffff"/>
  <line x1="0" y1="210" x2="1000" y2="210" stroke="#c4c8ce" stroke-width="1.3"/>
  <text x="12" y="203" fill="#9aa0a8" font-size="12" font-weight="600">视平线</text>
  <circle cx="70" cy="210" r="5" fill="#b0b4bb"/>
  <text x="70" y="200" fill="#9aa0a8" font-size="11" text-anchor="middle" font-weight="600">左灭点</text>
  <circle cx="930" cy="210" r="5" fill="#b0b4bb"/>
  <text x="930" y="200" fill="#9aa0a8" font-size="11" text-anchor="middle" font-weight="600">右灭点</text>
  <line x1="500" y1="540" x2="70" y2="210" stroke="#dcdfe4" stroke-width="1" stroke-dasharray="4 5"/>
  <line x1="500" y1="540" x2="930" y2="210" stroke="#dcdfe4" stroke-width="1" stroke-dasharray="4 5"/>
  <polygon points="700,350 619.8,332.2 619.8,276.6 700,286.4" fill="#fff" stroke="#111" stroke-width="2.4" stroke-linejoin="round"/>
  <polygon points="700,350 729.3,332.2 729.3,276.6 700,286.4" fill="#fff" stroke="#111" stroke-width="2.4" stroke-linejoin="round"/>
  <polygon points="700,286.4 729.3,276.6 654.8,269.1 619.8,276.6" fill="#fff" stroke="#111" stroke-width="2.4" stroke-linejoin="round"/>
  <line x1="700" y1="350" x2="729.3" y2="332.2" stroke="#111" stroke-width="2.4" stroke-linecap="round"/>
  <line x1="700" y1="350" x2="619.8" y2="332.2" stroke="#111" stroke-width="2.4" stroke-linecap="round"/>
  <line x1="700" y1="350" x2="700" y2="286.4" stroke="#111" stroke-width="2.4" stroke-linecap="round"/>
  <line x1="729.3" y1="332.2" x2="729.3" y2="276.6" stroke="#111" stroke-width="2.4" stroke-linecap="round"/>
  <line x1="700" y1="286.4" x2="729.3" y2="276.6" stroke="#111" stroke-width="2.4" stroke-linecap="round"/>
  <line x1="619.8" y1="332.2" x2="619.8" y2="276.6" stroke="#111" stroke-width="2.4" stroke-linecap="round"/>
  <line x1="700" y1="286.4" x2="619.8" y2="276.6" stroke="#111" stroke-width="2.4" stroke-linecap="round"/>
  <line x1="700" y1="286.4" x2="654.8" y2="269.1" stroke="#111" stroke-width="2.4" stroke-linecap="round"/>
  <line x1="729.3" y1="276.6" x2="654.8" y2="269.1" stroke="#111" stroke-width="2.4" stroke-linecap="round"/>
  <line x1="619.8" y1="276.6" x2="654.8" y2="269.1" stroke="#111" stroke-width="2.4" stroke-linecap="round"/>
  <line x1="700" y1="350" x2="700" y2="286.4" stroke="#111" stroke-width="3" stroke-linecap="round"/>
  <text x="700" y="370" fill="#333" font-size="13" font-weight="700" text-anchor="middle" paint-order="stroke" stroke="#fff" stroke-width="3">远</text>
  <polygon points="500,540 371,441 371,336 500,390" fill="#fff" stroke="#111" stroke-width="2.4" stroke-linejoin="round"/>
  <polygon points="500,540 629,441 629,336 500,390" fill="#fff" stroke="#111" stroke-width="2.4" stroke-linejoin="round"/>
  <polygon points="500,390 629,336 500,306.9 371,336" fill="#fff" stroke="#111" stroke-width="2.4" stroke-linejoin="round"/>
  <line x1="500" y1="540" x2="629" y2="441" stroke="#111" stroke-width="2.4" stroke-linecap="round"/>
  <line x1="500" y1="540" x2="371" y2="441" stroke="#111" stroke-width="2.4" stroke-linecap="round"/>
  <line x1="500" y1="540" x2="500" y2="390" stroke="#111" stroke-width="2.4" stroke-linecap="round"/>
  <line x1="629" y1="441" x2="629" y2="336" stroke="#111" stroke-width="2.4" stroke-linecap="round"/>
  <line x1="500" y1="390" x2="629" y2="336" stroke="#111" stroke-width="2.4" stroke-linecap="round"/>
  <line x1="371" y1="441" x2="371" y2="336" stroke="#111" stroke-width="2.4" stroke-linecap="round"/>
  <line x1="500" y1="390" x2="371" y2="336" stroke="#111" stroke-width="2.4" stroke-linecap="round"/>
  <line x1="500" y1="390" x2="500" y2="306.9" stroke="#111" stroke-width="2.4" stroke-linecap="round"/>
  <line x1="629" y1="336" x2="500" y2="306.9" stroke="#111" stroke-width="2.4" stroke-linecap="round"/>
  <line x1="371" y1="336" x2="500" y2="306.9" stroke="#111" stroke-width="2.4" stroke-linecap="round"/>
  <line x1="500" y1="540" x2="500" y2="390" stroke="#111" stroke-width="3" stroke-linecap="round"/>
  <text x="500" y="560" fill="#333" font-size="13" font-weight="700" text-anchor="middle" paint-order="stroke" stroke="#fff" stroke-width="3">基准</text>
  <polygon points="300,600 218.5,461.7 218.5,347.3 300,422.7" fill="#fff" stroke="#111" stroke-width="2.4" stroke-linejoin="round"/>
  <polygon points="300,600 523.4,461.7 523.4,347.3 300,422.7" fill="#fff" stroke="#111" stroke-width="2.4" stroke-linejoin="round"/>
  <polygon points="300,422.7 523.4,347.3 404.7,311.4 218.5,347.3" fill="#fff" stroke="#111" stroke-width="2.4" stroke-linejoin="round"/>
  <line x1="300" y1="600" x2="523.4" y2="461.7" stroke="#111" stroke-width="2.4" stroke-linecap="round"/>
  <line x1="300" y1="600" x2="218.5" y2="461.7" stroke="#111" stroke-width="2.4" stroke-linecap="round"/>
  <line x1="300" y1="600" x2="300" y2="422.7" stroke="#111" stroke-width="2.4" stroke-linecap="round"/>
  <line x1="523.4" y1="461.7" x2="523.4" y2="347.3" stroke="#111" stroke-width="2.4" stroke-linecap="round"/>
  <line x1="300" y1="422.7" x2="523.4" y2="347.3" stroke="#111" stroke-width="2.4" stroke-linecap="round"/>
  <line x1="218.5" y1="461.7" x2="218.5" y2="347.3" stroke="#111" stroke-width="2.4" stroke-linecap="round"/>
  <line x1="300" y1="422.7" x2="218.5" y2="347.3" stroke="#111" stroke-width="2.4" stroke-linecap="round"/>
  <line x1="300" y1="422.7" x2="404.7" y2="311.4" stroke="#111" stroke-width="2.4" stroke-linecap="round"/>
  <line x1="523.4" y1="347.3" x2="404.7" y2="311.4" stroke="#111" stroke-width="2.4" stroke-linecap="round"/>
  <line x1="218.5" y1="347.3" x2="404.7" y2="311.4" stroke="#111" stroke-width="2.4" stroke-linecap="round"/>
  <line x1="300" y1="600" x2="300" y2="422.7" stroke="#111" stroke-width="3" stroke-linecap="round"/>
  <text x="300" y="620" fill="#333" font-size="13" font-weight="700" text-anchor="middle" paint-order="stroke" stroke="#fff" stroke-width="3">近</text>
</svg>